<svg width="399" height="128" viewBox="0 0 399 128" fill="none" xmlns="http://www.w3.org/2000/svg">
<rect x="156" width="116" height="128" fill="#C01009"/>
<rect x="272" width="116" height="128" fill="#C01009"/>
<rect width="156" height="128" fill="white"/>
<path d="M55.4753 76.79C53.9713 80.2367 52.2793 83.2447 50.3993 85.814C48.582 88.3207 46.6393 90.4513 44.5713 92.206C42.566 93.898 40.5293 95.1513 38.4613 95.966C36.3933 96.7807 34.388 97.188 32.4453 97.188C30.5026 97.188 28.7166 96.7493 27.0873 95.872C25.5206 94.9947 24.142 93.6787 22.9513 91.924C21.7606 90.1693 20.7893 88.0073 20.0373 85.438C19.348 82.8687 19.0033 79.8607 19.0033 76.414C19.0033 70.5233 19.818 64.7267 21.4473 59.024C23.0766 53.2587 25.364 48.0887 28.3093 43.514C31.2546 38.9393 34.7326 35.2733 38.7433 32.516C42.8166 29.696 47.2973 28.286 52.1853 28.286C53.6893 28.286 55.1306 28.5993 56.5093 29.226C57.888 29.8527 59.0786 30.73 60.0813 31.858C61.084 32.986 61.8673 34.3647 62.4313 35.994C63.058 37.6233 63.3713 39.4407 63.3713 41.446C63.3713 41.822 63.3713 42.2293 63.3713 42.668C63.3713 43.044 63.34 43.4513 63.2773 43.89L50.9633 47.18C50.2113 45.6133 49.334 44.83 48.3313 44.83C47.3286 44.83 46.2633 45.4253 45.1353 46.616C44.07 47.744 43.0046 49.248 41.9393 51.128C40.874 52.9453 39.84 55.0133 38.8373 57.332C37.8346 59.588 36.9573 61.8753 36.2053 64.194C35.4533 66.5127 34.8266 68.7373 34.3253 70.868C33.8866 72.936 33.6673 74.628 33.6673 75.944C33.6673 77.9493 33.918 79.3593 34.4193 80.174C34.9833 80.9887 35.704 81.396 36.5813 81.396C37.2706 81.396 38.054 81.1453 38.9313 80.644C39.8086 80.08 40.6233 79.3907 41.3753 78.576C42.1273 77.6987 42.8166 76.7273 43.4433 75.662C44.07 74.5967 44.5086 73.5313 44.7593 72.466L55.4753 76.79ZM142.641 46.146C142.641 51.2847 142.077 56.1413 140.949 60.716C139.884 65.228 138.443 69.3953 136.625 73.218C134.808 76.978 132.677 80.362 130.233 83.37C127.852 86.3153 125.345 88.8533 122.713 90.984C120.081 93.052 117.418 94.65 114.723 95.778C112.029 96.8433 109.459 97.376 107.015 97.376C104.947 97.376 103.067 97 101.375 96.248C99.6832 95.4333 98.2105 94.274 96.9572 92.77C95.7039 91.2033 94.7012 89.2293 93.9492 86.848C93.2599 84.404 92.9152 81.49 92.9152 78.106C92.9152 74.5967 93.3539 70.8993 94.2312 67.014C95.1085 63.1287 96.2992 59.2747 97.8032 55.452C99.3072 51.6293 101.156 47.9947 103.349 44.548C105.543 41.1013 107.955 38.062 110.587 35.43C113.219 32.7353 116.039 30.6047 119.047 29.038C122.055 27.4713 125.189 26.688 128.447 26.688C131.267 26.688 133.586 27.2833 135.403 28.474C137.283 29.602 138.725 31.106 139.727 32.986C140.793 34.8033 141.545 36.8713 141.983 39.19C142.422 41.5087 142.641 43.8273 142.641 46.146ZM106.921 75.662C106.921 76.3513 107.047 77.072 107.297 77.824C107.548 78.576 107.893 79.234 108.331 79.798C108.77 80.362 109.303 80.8633 109.929 81.302C110.619 81.678 111.339 81.866 112.091 81.866C114.911 81.866 117.418 80.8947 119.611 78.952C121.805 77.0093 123.622 74.628 125.063 71.808C126.505 68.988 127.601 65.98 128.353 62.784C129.168 59.588 129.575 56.674 129.575 54.042C129.575 53.29 129.513 52.4753 129.387 51.598C129.325 50.7207 129.137 49.906 128.823 49.154C128.573 48.402 128.134 47.7753 127.507 47.274C126.943 46.71 126.16 46.428 125.157 46.428C123.152 46.428 121.303 46.9293 119.611 47.932C117.919 48.9347 116.384 50.282 115.005 51.974C113.689 53.6033 112.53 55.4833 111.527 57.614C110.525 59.682 109.647 61.8127 108.895 64.006C108.206 66.1367 107.705 68.236 107.391 70.304C107.078 72.372 106.921 74.158 106.921 75.662Z" fill="black"/>
<path d="M170.199 96.436C172.956 88.1013 175.588 79.9233 178.095 71.902C179.16 68.518 180.257 64.9773 181.385 61.28C182.513 57.5827 183.641 53.9167 184.769 50.282C185.897 46.6473 186.931 43.138 187.871 39.754C188.873 36.37 189.751 33.2367 190.503 30.354C193.949 30.354 197.208 30.166 200.279 29.79C203.349 29.414 206.671 29.0693 210.243 28.756C210.055 30.1347 209.835 31.7013 209.585 33.456C209.397 35.148 209.146 36.934 208.833 38.814C208.582 40.694 208.3 42.6367 207.987 44.642C207.673 46.6473 207.297 49.2167 206.859 52.35C206.42 55.4833 205.825 59.4 205.073 64.1H206.295C208.112 59.3373 209.616 55.3893 210.807 52.256C211.997 49.06 212.969 46.4593 213.721 44.454C214.473 42.4487 215.225 40.506 215.977 38.626C216.791 36.6833 217.543 34.866 218.233 33.174C218.985 31.4193 219.674 29.884 220.301 28.568C221.867 28.4427 223.34 28.286 224.719 28.098C226.097 27.91 227.476 27.722 228.855 27.534C230.233 27.2833 231.612 27.064 232.991 26.876C234.432 26.6253 235.999 26.3433 237.691 26.03C237.064 29.6647 236.469 33.3933 235.905 37.216C235.341 41.0387 234.839 44.8613 234.401 48.684C233.962 52.444 233.523 56.1727 233.085 59.87C232.709 63.5673 232.364 67.0767 232.051 70.398C231.299 78.1687 230.641 85.7513 230.077 93.146L213.721 96.06C213.721 95.7467 213.752 94.9007 213.815 93.522C213.94 92.1433 214.065 90.4513 214.191 88.446C214.379 86.4407 214.598 84.216 214.849 81.772C215.162 79.328 215.444 76.884 215.695 74.44C216.008 71.996 216.321 69.646 216.635 67.39C216.948 65.0713 217.261 63.0973 217.575 61.468H216.729C215.851 64.1 214.88 66.8887 213.815 69.834C212.749 72.7167 211.653 75.662 210.525 78.67C209.459 81.678 208.394 84.6233 207.329 87.506C206.263 90.3887 205.323 93.146 204.509 95.778C202.315 95.8407 200.435 95.9347 198.869 96.06C197.302 96.1227 195.485 96.2167 193.417 96.342L196.425 61.468H195.015C194.889 62.2827 194.576 63.6613 194.075 65.604C193.573 67.484 192.978 69.6773 192.289 72.184C191.662 74.628 190.973 77.1973 190.221 79.892C189.469 82.524 188.748 84.9993 188.059 87.318C187.432 89.574 186.899 91.454 186.461 92.958C186.022 94.3993 185.771 95.214 185.709 95.402L170.199 96.436ZM282.73 95.12C282.166 95.12 281.069 95.214 279.44 95.402C277.811 95.5273 276.119 95.7153 274.364 95.966C272.609 96.154 271.011 96.342 269.57 96.53C268.191 96.718 267.439 96.8433 267.314 96.906C268.066 94.2113 268.818 91.2347 269.57 87.976C270.322 84.6547 271.074 81.208 271.826 77.636C272.641 74.0013 273.393 70.3353 274.082 66.638C274.834 62.9407 275.555 59.3687 276.244 55.922C277.811 47.9007 279.346 39.66 280.85 31.2L295.514 28.85C293.885 37.2473 292.255 45.488 290.626 53.572C289.937 57.0187 289.216 60.5907 288.464 64.288C287.775 67.9853 287.085 71.6513 286.396 75.286C285.769 78.9207 285.111 82.4613 284.422 85.908C283.795 89.292 283.231 92.3627 282.73 95.12ZM363.4 92.676C363.275 92.7387 362.836 92.864 362.084 93.052C361.332 93.24 360.392 93.4907 359.264 93.804C358.136 94.1173 356.883 94.462 355.504 94.838C354.188 95.214 352.872 95.59 351.556 95.966C350.303 96.342 349.112 96.6867 347.984 97C346.856 97.376 345.979 97.6893 345.352 97.94C345.164 95.4333 345.008 92.9893 344.882 90.608C344.757 88.54 344.6 86.472 344.412 84.404C344.287 82.336 344.193 80.6127 344.13 79.234C343.566 80.6127 342.814 82.336 341.874 84.404C340.997 86.472 340.12 88.5087 339.242 90.514C338.177 92.8327 337.08 95.1827 335.952 97.564L319.972 96.154C323.106 90.5767 326.239 85.062 329.372 79.61C332.506 74.158 335.388 68.4553 338.02 62.502C337.644 59.682 337.268 57.1753 336.892 54.982C336.579 52.7887 336.203 50.6267 335.764 48.496C335.326 46.3653 334.856 44.2347 334.354 42.104C333.853 39.9107 333.352 37.4353 332.85 34.678L347.89 28.474C348.204 31.4193 348.548 34.678 348.924 38.25C349.363 41.822 349.739 45.112 350.052 48.12C351.494 44.9867 352.904 41.8533 354.282 38.72C355.724 35.5867 357.196 32.4847 358.7 29.414L372.33 33.08C370.701 35.8373 369.228 38.3753 367.912 40.694C366.596 43.0127 365.343 45.3313 364.152 47.65C362.962 49.9687 361.771 52.35 360.58 54.794C359.39 57.1753 358.105 59.8387 356.726 62.784C357.102 65.5413 357.541 68.142 358.042 70.586C358.544 73.03 359.076 75.4427 359.64 77.824C360.267 80.2053 360.862 82.618 361.426 85.062C362.053 87.4433 362.711 89.9813 363.4 92.676Z" fill="white"/>
</svg>
