<svg width="389" height="128" viewBox="0 0 389 128" fill="none" xmlns="http://www.w3.org/2000/svg">
<rect x="156" width="116" height="128" fill="#C01009"/>
<rect x="272" width="116" height="128" fill="#C01009"/>
<rect width="156" height="128" fill="white"/>
<path d="M62.0219 72.7559V75.9688C62.0219 82.6087 59.9564 88.04 55.8256 92.2627C51.4805 96.6995 45.8197 98.918 38.8432 98.918C31.8666 98.918 26.2058 96.6995 21.8607 92.2627C17.7299 88.04 15.6644 82.6087 15.6644 75.9688V50.7246C15.6644 44.0846 17.7299 38.6533 21.8607 34.4307C26.2058 29.9938 31.8666 27.7754 38.8432 27.7754C46.0645 27.7754 51.7253 29.9938 55.8256 34.4307C59.9564 38.8675 62.0219 43.9928 62.0219 49.8066L53.3012 53.9375H52.8422V50.7246C52.8422 46.6243 51.7406 43.3044 49.5375 40.7646C46.8142 37.613 43.2494 36.0371 38.8432 36.0371C34.4369 36.0371 30.8721 37.613 28.1488 40.7646C25.9457 43.3044 24.8441 46.6243 24.8441 50.7246V75.9688C24.8441 80.069 25.9457 83.389 28.1488 85.9287C30.8721 89.0804 34.4369 90.6562 38.8432 90.6562C43.2494 90.6562 46.8142 89.0804 49.5375 85.9287C51.7406 83.389 52.8422 80.375 52.8422 76.8867L61.5629 72.7559H62.0219ZM102.721 75.9688C102.721 80.069 103.822 83.389 106.026 85.9287C108.749 89.0804 112.314 90.6562 116.72 90.6562C121.126 90.6562 124.691 89.0804 127.414 85.9287C129.617 83.389 130.719 80.069 130.719 75.9688V50.7246C130.719 46.6243 129.617 43.3044 127.414 40.7646C124.691 37.613 121.126 36.0371 116.72 36.0371C112.314 36.0371 108.749 37.613 106.026 40.7646C103.822 43.3044 102.721 46.6243 102.721 50.7246V75.9688ZM93.5412 75.9688V50.7246C93.5412 44.0846 95.6067 38.6533 99.7375 34.4307C104.083 29.9938 109.743 27.7754 116.72 27.7754C123.697 27.7754 129.357 29.9938 133.702 34.4307C137.833 38.6227 139.899 44.054 139.899 50.7246V75.9688C139.899 82.6087 137.833 88.04 133.702 92.2627C129.357 96.6995 123.697 98.918 116.72 98.918C109.743 98.918 104.083 96.6995 99.7375 92.2627C95.6067 88.04 93.5412 82.6087 93.5412 75.9688Z" fill="black"/>
<path d="M171.418 99.8359V50.7246C171.418 44.1152 173.483 38.6839 177.614 34.4307C181.959 29.9938 187.62 27.7754 194.597 27.7754C200.9 27.7754 206.27 29.9938 210.707 34.4307C211.809 35.5322 212.635 36.6032 213.186 37.6436C213.889 36.5726 214.746 35.5475 215.756 34.5684C220.376 30.0397 225.716 27.7754 231.774 27.7754C238.629 27.7754 244.289 29.9938 248.757 34.4307C252.888 38.5309 254.953 43.9622 254.953 50.7246V95.7051L246.232 99.8359H245.774V50.7246C245.774 46.6243 244.672 43.3044 242.469 40.7646C239.746 37.613 236.181 36.0371 231.774 36.0371C227.368 36.0371 223.803 37.613 221.08 40.7646C218.877 43.3044 217.775 46.6243 217.775 50.7246V95.7051L209.055 99.8359H208.596V50.7246C208.596 46.6243 207.494 43.3044 205.291 40.7646C202.568 37.613 199.003 36.0371 194.597 36.0371C190.191 36.0371 186.626 37.613 183.902 40.7646C181.699 43.3044 180.598 46.6243 180.598 50.7246V95.7051L171.877 99.8359H171.418ZM286.473 99.8359V30.9883L295.193 26.8574H295.652V95.7051L286.932 99.8359H286.473ZM328.273 99.8359L320.287 96.0723L339.656 63.3467L320.287 30.667L328.319 26.8574H328.778L345.026 55.2227L361.274 26.8574H361.733L369.765 30.667L350.396 63.3467L369.765 96.0723L361.779 99.8359H361.32L345.026 71.4707L328.732 99.8359H328.273Z" fill="white"/>
</svg>
