<?xml version="1.0" encoding="utf-8"?>
<!-- Generator: Adobe Illustrator 18.0.0, SVG Export Plug-In . SVG Version: 6.00 Build 0)  -->
<!DOCTYPE svg PUBLIC "-//W3C//DTD SVG 1.1//EN" "http://www.w3.org/Graphics/SVG/1.1/DTD/svg11.dtd">
<svg version="1.1" id="Layer_1" xmlns="http://www.w3.org/2000/svg" xmlns:xlink="http://www.w3.org/1999/xlink" x="0px" y="0px"
	 viewBox="0 0 235 260" enable-background="new 0 0 235 260" xml:space="preserve">
<g>
	<path fill="#FFFFFF" d="M-286.4,257.7h-212c-4.4,0-8-3.6-8-8v-239c0-4.4,3.6-8,8-8h212c4.4,0,8,3.6,8,8v239
		C-278.4,254.1-282,257.7-286.4,257.7z"/>
	<g>
		<path fill="#CB2027" d="M-476.1,237.7h15.4v8.8h-33.2l16.9-23.8h-14.4v-8.8h32.1L-476.1,237.7z"/>
		<path fill="#CB2027" d="M-428.7,242.3c-2.9,2.9-7.9,5.3-14.2,5.3s-11.3-2.3-14.2-5.3c-3.3-3.3-4.9-8-4.9-12.1s1.6-8.8,4.9-12.1
			c2.9-2.9,7.9-5.3,14.2-5.3s11.3,2.3,14.2,5.3c3.3,3.3,4.9,8,4.9,12.1S-425.5,239-428.7,242.3z M-448.9,224
			c-1.5,1.5-2.4,3.5-2.4,6.1c0,3,1.2,4.9,2.4,6.1c1.3,1.3,3.2,2.3,6,2.3c2.3,0,4.3-0.8,5.8-2.3s2.4-3.5,2.4-6.1s-0.9-4.6-2.4-6.1
			s-3.5-2.3-5.9-2.3S-447.4,222.5-448.9,224z"/>
		<path fill="#CB2027" d="M-389,242.3c-2.9,2.9-7.9,5.3-14.2,5.3s-11.3-2.3-14.2-5.3c-3.3-3.3-4.9-8-4.9-12.1s1.6-8.8,4.9-12.1
			c2.9-2.9,7.9-5.3,14.2-5.3s11.3,2.3,14.2,5.3c3.3,3.3,4.9,8,4.9,12.1S-385.7,239-389,242.3z M-409.1,224c-1.5,1.5-2.4,3.5-2.4,6.1
			c0,3,1.2,4.9,2.4,6.1c1.3,1.3,3.2,2.3,6,2.3c2.3,0,4.3-0.8,5.8-2.3c1.5-1.5,2.4-3.5,2.4-6.1s-0.9-4.6-2.4-6.1
			c-1.5-1.5-3.5-2.3-5.9-2.3S-407.6,222.5-409.1,224z"/>
		<path fill="#CB2027" d="M-383,213.9h10.5v3.8c2.7-4.1,6.6-4.6,9.1-4.6c1.4,0,3.9,0.1,6.1,1.5c1.7,0.9,3.1,2.6,3.9,4.5
			c0.8-1.3,2-2.8,4.2-4.2c2.3-1.4,4.4-1.8,6.9-1.8c3.9,0,7.2,1.2,9.1,3.1c3.1,3,3.4,7.4,3.4,9.7v20.6h-10.5v-16.5
			c0-1.7,0-4.6-1.4-6.4c-0.9-1.1-2.3-1.8-3.8-1.8c-1.8,0-3.2,0.8-4.1,2c-1.4,1.8-1.6,4.3-1.6,6.4v16.2h-10.5v-16.9
			c0-2.2-0.1-4.7-1.7-6.4c-1.1-1.1-2.4-1.3-3.5-1.3c-1.4,0-2.6,0.4-3.7,1.3c-2,1.9-2,5.5-2,6.6v16.6H-383V213.9z"/>
		<path fill="#CB2027" d="M-294.9,242.3c-2.9,2.9-7.9,5.3-14.2,5.3s-11.3-2.3-14.2-5.3c-3.3-3.3-4.9-8-4.9-12.1s1.6-8.8,4.9-12.1
			c2.9-2.9,7.9-5.3,14.2-5.3s11.3,2.3,14.2,5.3c3.3,3.3,4.9,8,4.9,12.1S-291.6,239-294.9,242.3z M-315,224c-1.5,1.5-2.4,3.5-2.4,6.1
			c0,3,1.2,4.9,2.4,6.1c1.3,1.3,3.2,2.3,6,2.3c2.3,0,4.3-0.8,5.8-2.3c1.5-1.5,2.4-3.5,2.4-6.1s-0.9-4.6-2.4-6.1
			c-1.5-1.5-3.5-2.3-5.9-2.3S-313.5,222.5-315,224z"/>
	</g>
	<g>
		<g>
			<polygon fill="#CB2027" points="-494.4,205.7 -479.3,64.5 -393.9,64.5 			"/>
		</g>
		<polygon display="none" fill="#CB2027" points="-288.2,13.4 -297.2,154.5 -388.2,154.5 		"/>
		<g>
			<polygon fill="#CB2027" points="-287.9,13.3 -303,154.5 -388.4,154.5 			"/>
		</g>
	</g>
</g>
<g>
	<g>
		<path fill="#CB2027" d="M288.9,237.7h15.4v8.8h-33.2l16.9-23.8h-14.4v-8.8h32.1L288.9,237.7z"/>
		<path fill="#CB2027" d="M336.3,242.3c-2.9,2.9-7.9,5.3-14.2,5.3s-11.3-2.3-14.2-5.3c-3.3-3.3-4.9-8-4.9-12.1s1.6-8.8,4.9-12.1
			c2.9-2.9,7.9-5.3,14.2-5.3s11.3,2.3,14.2,5.3c3.3,3.3,4.9,8,4.9,12.1S339.6,239,336.3,242.3z M316.1,224c-1.5,1.5-2.4,3.5-2.4,6.1
			c0,3,1.2,4.9,2.4,6.1c1.3,1.3,3.2,2.3,6,2.3c2.3,0,4.3-0.8,5.8-2.3c1.5-1.5,2.4-3.5,2.4-6.1s-0.9-4.6-2.4-6.1
			c-1.5-1.5-3.5-2.3-5.9-2.3S317.7,222.5,316.1,224z"/>
		<path fill="#CB2027" d="M376.1,242.3c-2.9,2.9-7.9,5.3-14.2,5.3s-11.3-2.3-14.2-5.3c-3.3-3.3-4.9-8-4.9-12.1s1.6-8.8,4.9-12.1
			c2.9-2.9,7.9-5.3,14.2-5.3s11.3,2.3,14.2,5.3c3.3,3.3,4.9,8,4.9,12.1S379.4,239,376.1,242.3z M355.9,224c-1.5,1.5-2.4,3.5-2.4,6.1
			c0,3,1.2,4.9,2.4,6.1c1.3,1.3,3.2,2.3,6,2.3c2.3,0,4.3-0.8,5.8-2.3s2.4-3.5,2.4-6.1s-0.9-4.6-2.4-6.1s-3.5-2.3-5.9-2.3
			S357.5,222.5,355.9,224z"/>
		<path fill="#CB2027" d="M382.1,213.9h10.5v3.8c2.7-4.1,6.6-4.6,9.1-4.6c1.4,0,3.9,0.1,6.1,1.5c1.7,0.9,3.1,2.6,3.9,4.5
			c0.8-1.3,2-2.8,4.2-4.2c2.3-1.4,4.4-1.8,6.9-1.8c3.9,0,7.2,1.2,9.1,3.1c3.1,3,3.4,7.4,3.4,9.7v20.6h-10.5v-16.5
			c0-1.7,0-4.6-1.4-6.4c-0.9-1.1-2.3-1.8-3.8-1.8c-1.8,0-3.2,0.8-4.1,2c-1.4,1.8-1.6,4.3-1.6,6.4v16.2h-10.5v-16.9
			c0-2.2-0.1-4.7-1.7-6.4c-1.1-1.1-2.4-1.3-3.5-1.3c-1.4,0-2.6,0.4-3.6,1.3c-2,1.9-2,5.5-2,6.6v16.6h-10.5V213.9z"/>
		<path fill="#CB2027" d="M470.2,242.3c-2.9,2.9-7.9,5.3-14.2,5.3s-11.3-2.3-14.2-5.3c-3.3-3.3-4.9-8-4.9-12.1s1.6-8.8,4.9-12.1
			c2.9-2.9,7.9-5.3,14.2-5.3s11.3,2.3,14.2,5.3c3.3,3.3,4.9,8,4.9,12.1S473.4,239,470.2,242.3z M450,224c-1.5,1.5-2.4,3.5-2.4,6.1
			c0,3,1.2,4.9,2.4,6.1c1.3,1.3,3.2,2.3,6,2.3c2.3,0,4.3-0.8,5.8-2.3s2.4-3.5,2.4-6.1s-0.9-4.6-2.4-6.1s-3.5-2.3-5.9-2.3
			S451.5,222.5,450,224z"/>
	</g>
	<g>
		<g>
			<polygon fill="#CB2027" points="270.6,205.7 285.7,64.5 371.1,64.5 			"/>
		</g>
		<polygon display="none" fill="#CB2027" points="476.8,13.4 467.8,154.5 376.8,154.5 		"/>
		<g>
			<polygon fill="#CB2027" points="477.1,13.3 462,154.5 376.6,154.5 			"/>
		</g>
	</g>
</g>
<g opacity="0.4">
	<g>
		<path d="M-221.1,237.7h15.4v8.8h-33.2l16.9-23.8h-14.4v-8.8h32.1L-221.1,237.7z"/>
		<path d="M-173.7,242.3c-2.9,2.9-7.9,5.3-14.2,5.3s-11.3-2.3-14.2-5.3c-3.3-3.3-4.9-8-4.9-12.1s1.6-8.8,4.9-12.1
			c2.9-2.9,7.9-5.3,14.2-5.3s11.3,2.3,14.2,5.3c3.3,3.3,4.9,8,4.9,12.1S-170.5,239-173.7,242.3z M-193.9,224
			c-1.5,1.5-2.4,3.5-2.4,6.1c0,3,1.2,4.9,2.4,6.1c1.3,1.3,3.2,2.3,6,2.3c2.3,0,4.3-0.8,5.8-2.3s2.4-3.5,2.4-6.1s-0.9-4.6-2.4-6.1
			s-3.5-2.3-5.9-2.3S-192.4,222.5-193.9,224z"/>
		<path d="M-134,242.3c-2.9,2.9-7.9,5.3-14.2,5.3s-11.3-2.3-14.2-5.3c-3.3-3.3-4.9-8-4.9-12.1s1.6-8.8,4.9-12.1
			c2.9-2.9,7.9-5.3,14.2-5.3s11.3,2.3,14.2,5.3c3.3,3.3,4.9,8,4.9,12.1S-130.7,239-134,242.3z M-154.1,224c-1.5,1.5-2.4,3.5-2.4,6.1
			c0,3,1.2,4.9,2.4,6.1c1.3,1.3,3.2,2.3,6,2.3c2.3,0,4.3-0.8,5.8-2.3c1.5-1.5,2.4-3.5,2.4-6.1s-0.9-4.6-2.4-6.1
			c-1.5-1.5-3.5-2.3-5.9-2.3S-152.6,222.5-154.1,224z"/>
		<path d="M-128,213.9h10.5v3.8c2.7-4.1,6.6-4.6,9.1-4.6c1.4,0,3.9,0.1,6.1,1.5c1.7,0.9,3.1,2.6,3.9,4.5c0.8-1.3,2-2.8,4.2-4.2
			c2.3-1.4,4.4-1.8,6.9-1.8c3.9,0,7.2,1.2,9.1,3.1c3.1,3,3.4,7.4,3.4,9.7v20.6h-10.5v-16.5c0-1.7,0-4.6-1.4-6.4
			c-0.9-1.1-2.3-1.8-3.8-1.8c-1.8,0-3.2,0.8-4.1,2c-1.4,1.8-1.6,4.3-1.6,6.4v16.2h-10.5v-16.9c0-2.2-0.1-4.7-1.7-6.4
			c-1.1-1.1-2.4-1.3-3.5-1.3c-1.4,0-2.6,0.4-3.7,1.3c-2,1.9-2,5.5-2,6.6v16.6H-128V213.9z"/>
		<path d="M-39.9,242.3c-2.9,2.9-7.9,5.3-14.2,5.3s-11.3-2.3-14.2-5.3c-3.3-3.3-4.9-8-4.9-12.1s1.6-8.8,4.9-12.1
			c2.9-2.9,7.9-5.3,14.2-5.3s11.3,2.3,14.2,5.3c3.3,3.3,4.9,8,4.9,12.1S-36.6,239-39.9,242.3z M-60,224c-1.5,1.5-2.4,3.5-2.4,6.1
			c0,3,1.2,4.9,2.4,6.1c1.3,1.3,3.2,2.3,6,2.3c2.3,0,4.3-0.8,5.8-2.3c1.5-1.5,2.4-3.5,2.4-6.1s-0.9-4.6-2.4-6.1
			c-1.5-1.5-3.5-2.3-5.9-2.3S-58.5,222.5-60,224z"/>
	</g>
	<g>
		<g>
			<polygon points="-239.4,205.7 -224.3,64.5 -138.9,64.5 			"/>
		</g>
		<polygon display="none" points="-33.2,13.4 -42.2,154.5 -133.2,154.5 		"/>
		<g>
			<polygon points="-32.9,13.3 -48,154.5 -133.4,154.5 			"/>
		</g>
	</g>
</g>
<g>
	<g>
		<path fill="#FFFFFF" d="M33.9,237.7h15.4v8.8H16.1L33,222.6H18.6v-8.8h32.1L33.9,237.7z"/>
		<path fill="#FFFFFF" d="M81.3,242.3c-2.9,2.9-7.9,5.3-14.2,5.3s-11.3-2.3-14.2-5.3c-3.3-3.3-4.9-8-4.9-12.1s1.6-8.8,4.9-12.1
			c2.9-2.9,7.9-5.3,14.2-5.3s11.3,2.3,14.2,5.3c3.3,3.3,4.9,8,4.9,12.1S84.5,239,81.3,242.3z M61.1,224c-1.5,1.5-2.4,3.5-2.4,6.1
			c0,3,1.2,4.9,2.4,6.1c1.3,1.3,3.2,2.3,6,2.3c2.3,0,4.3-0.8,5.8-2.3s2.4-3.5,2.4-6.1s-0.9-4.6-2.4-6.1s-3.5-2.3-5.9-2.3
			S62.6,222.5,61.1,224z"/>
		<path fill="#FFFFFF" d="M121,242.3c-2.9,2.9-7.9,5.3-14.2,5.3s-11.3-2.3-14.2-5.3c-3.3-3.3-4.9-8-4.9-12.1s1.6-8.8,4.9-12.1
			c2.9-2.9,7.9-5.3,14.2-5.3s11.3,2.3,14.2,5.3c3.3,3.3,4.9,8,4.9,12.1S124.3,239,121,242.3z M100.9,224c-1.5,1.5-2.4,3.5-2.4,6.1
			c0,3,1.2,4.9,2.4,6.1c1.3,1.3,3.2,2.3,6,2.3c2.3,0,4.3-0.8,5.8-2.3c1.5-1.5,2.4-3.5,2.4-6.1s-0.9-4.6-2.4-6.1
			c-1.5-1.5-3.5-2.3-5.9-2.3S102.4,222.5,100.9,224z"/>
		<path fill="#FFFFFF" d="M127,213.9h10.5v3.8c2.7-4.1,6.6-4.6,9.1-4.6c1.4,0,3.9,0.1,6.1,1.5c1.7,0.9,3.1,2.6,3.9,4.5
			c0.8-1.3,2-2.8,4.2-4.2c2.3-1.4,4.4-1.8,6.9-1.8c3.9,0,7.2,1.2,9.1,3.1c3.1,3,3.4,7.4,3.4,9.7v20.6h-10.5v-16.5
			c0-1.7,0-4.6-1.4-6.4c-0.9-1.1-2.3-1.8-3.8-1.8c-1.8,0-3.2,0.8-4.1,2c-1.4,1.8-1.6,4.3-1.6,6.4v16.2h-10.5v-16.9
			c0-2.2-0.1-4.7-1.7-6.4c-1.1-1.1-2.4-1.3-3.5-1.3c-1.4,0-2.6,0.4-3.7,1.3c-2,1.9-2,5.5-2,6.6v16.6H127V213.9z"/>
		<path fill="#FFFFFF" d="M215.1,242.3c-2.9,2.9-7.9,5.3-14.2,5.3s-11.3-2.3-14.2-5.3c-3.3-3.3-4.9-8-4.9-12.1s1.6-8.8,4.9-12.1
			c2.9-2.9,7.9-5.3,14.2-5.3s11.3,2.3,14.2,5.3c3.3,3.3,4.9,8,4.9,12.1S218.4,239,215.1,242.3z M195,224c-1.5,1.5-2.4,3.5-2.4,6.1
			c0,3,1.2,4.9,2.4,6.1c1.3,1.3,3.2,2.3,6,2.3c2.3,0,4.3-0.8,5.8-2.3c1.5-1.5,2.4-3.5,2.4-6.1s-0.9-4.6-2.4-6.1
			c-1.5-1.5-3.5-2.3-5.9-2.3S196.5,222.5,195,224z"/>
	</g>
	<g>
		<g>
			<polygon fill="#FFFFFF" points="15.6,205.7 30.7,64.5 116.1,64.5 			"/>
		</g>
		<polygon display="none" fill="#FFFFFF" points="221.8,13.4 212.8,154.5 121.8,154.5 		"/>
		<g>
			<polygon fill="#FFFFFF" points="222.1,13.3 207,154.5 121.6,154.5 			"/>
		</g>
	</g>
</g>
</svg>
